<svg width="150" height="40" viewBox="0 0 150 40" fill="none" xmlns="http://www.w3.org/2000/svg">
  <!-- Icon -->
  <circle cx="20" cy="20" r="18" fill="#6366f1"/>
  <path d="M20 10C14.477 10 10 14.477 10 20C10 25.523 14.477 30 20 30C25.523 30 30 25.523 30 20C30 14.477 25.523 10 20 10ZM20 27C16.134 27 13 23.866 13 20C13 16.134 16.134 13 20 13C23.866 13 27 16.134 27 20C27 23.866 23.866 27 20 27Z" fill="white"/>
  <path d="M17 18C17 17.4477 17.4477 17 18 17C18.5523 17 19 17.4477 19 18V22C19 22.5523 18.5523 23 18 23C17.4477 23 17 22.5523 17 22V18Z" fill="white"/>
  <path d="M21 18C21 17.4477 21.4477 17 22 17C22.5523 17 23 17.4477 23 18V22C23 22.5523 22.5523 23 22 23C21.4477 23 21 22.5523 21 22V18Z" fill="white"/>
  
  <!-- Text -->
  <text x="45" y="26" font-family="Inter, sans-serif" font-size="18" font-weight="700" fill="#0f172a">Muqabala</text>
</svg>
